Coordinates
version=1
nRows=18
nColumns=22
inDegrees=yes

Units are S.I. units (second, meters, Newtons, ...)
If the header above contains a line with 'inDegrees', this indicates whether rotational values are in degrees (yes) or radians (no).

endheader
time	pelvis_tilt	pelvis_list	pelvis_rotation	pelvis_tx	pelvis_ty	pelvis_tz	hip_flexion_r	hip_adduction_r	hip_rotation_r	knee_angle_r	ankle_angle_r	subtalar_angle_r	hip_flexion_l	hip_adduction_l	hip_rotation_l	knee_angle_l	ankle_angle_l	subtalar_angle_l	lumbar_extension	lumbar_bending	lumbar_rotation
      1.31000000	      5.17363090	     -3.22235089	      7.29989593	     -1.34848496	      0.95289023	     -0.57423470	     -5.77152194	      3.23235494	    -13.25682894	     -9.69748324	     10.30484805	      0.72411525	     -2.08487525	     -3.90447706	    -12.91175581	    -16.82064253	     21.52263077	     -6.93964556	    -11.84776425	      3.66895555	     -8.65406489
      1.32000000	      5.17343127	     -3.21218783	      7.31341317	     -1.34863687	      0.95288358	     -0.57380552	     -5.76939189	      3.25013620	    -13.25972168	     -9.69394524	     10.30311185	      0.72533226	     -2.07469155	     -3.92225377	    -12.91035784	    -16.80985657	     21.52499213	     -6.93961999	    -11.85294167	      3.64865356	     -8.64826456
      1.33000000	      5.17262206	     -3.20251158	      7.33021731	     -1.34877382	      0.95288056	     -0.57338854	     -5.76821249	      3.26798551	    -13.26164489	     -9.68963824	     10.30018558	      0.72693084	     -2.06641827	     -3.94048061	    -12.90967830	    -16.79538522	     21.52823014	     -6.93882476	    -11.85458642	      3.62883709	     -8.64006568
      1.34000000	      5.16061856	     -3.20130152	      7.34545201	     -1.34883605	      0.95287191	     -0.57299205	     -5.77485135	      3.29525890	    -13.26596039	     -9.64885053	     10.27624420	      0.73637743	     -2.06830997	     -3.96093499	    -12.89782833	    -16.74539031	     21.54653271	     -6.92544403	    -11.82465683	      3.61871450	     -8.60329936
      1.35000000	      5.16029614	     -3.18991509	      7.36587933	     -1.34897857	      0.95288466	     -0.57260116	     -5.76987470	      3.30962267	    -13.26114304	     -9.64781846	     10.27331137	      0.73761059	     -2.06420623	     -3.97665076	    -12.90154941	    -16.72414263	     21.54769161	     -6.92348770	    -11.82960875	      3.60056663	     -8.59904934
      1.36000000	      5.16355722	     -3.16555768	      7.35665979	     -1.34902406	      0.95293761	     -0.57220497	     -5.79426143	      3.31247608	    -13.18842748	     -9.60339236	     10.23322511	      0.75342015	     -2.13216879	     -3.95822830	    -12.87725284	    -16.59115198	     21.52315598	     -6.85861211	    -11.82098046	      3.56694034	     -8.55266310
      1.37000000	      5.19177648	     -3.13093825	      7.36578376	     -1.34909657	      0.95302281	     -0.57184400	     -5.83883196	      3.30472176	    -13.18134660	     -9.57108684	     10.26154987	      0.75795356	     -2.21019563	     -3.93952788	    -12.87901849	    -16.48738026	     21.46029621	     -6.78907515	    -11.85192190	      3.52905876	     -8.52944810
      1.38000000	      5.18569575	     -3.11533947	      7.38777809	     -1.34920375	      0.95304164	     -0.57150296	     -5.83859753	      3.31356460	    -13.19336132	     -9.54053267	     10.27198792	      0.75567986	     -2.22014406	     -3.94365982	    -12.88250883	    -16.43366007	     21.45266861	     -6.77576883	    -11.84366904	      3.51241478	     -8.51389368
      1.39000000	      5.18425709	     -3.10074165	      7.41476116	     -1.34937109	      0.95306194	     -0.57116486	     -5.82772485	      3.32302095	    -13.19239158	     -9.53308150	     10.27512200	      0.75517864	     -2.21534711	     -3.95350830	    -12.88581737	    -16.41104070	     21.45019615	     -6.77340999	    -11.85460547	      3.49914747	     -8.50680288
      1.40000000	      5.17760006	     -3.05168403	      7.44342396	     -1.34945860	      0.95310293	     -0.57087009	     -5.83848954	      3.29580218	    -13.19693327	     -9.49304171	     10.33180580	      0.73369477	     -2.26695216	     -3.90167018	    -12.79631324	    -16.27807093	     21.35772003	     -6.69714895	    -11.84822614	      3.44721945	     -8.49696425
      1.41000000	      5.17167073	     -3.03299784	      7.47595816	     -1.34958638	      0.95311303	     -0.57055040	     -5.84082909	      3.30221722	    -13.22577923	     -9.45643595	     10.34334271	      0.72769675	     -2.26363509	     -3.90607094	    -12.79917933	    -16.24666770	     21.34241273	     -6.68046448	    -11.85065663	      3.42839418	     -8.47405418
      1.42000000	      5.16752497	     -3.01847674	      7.50944408	     -1.34975552	      0.95311676	     -0.57023431	     -5.82975173	      3.31084489	    -13.22642343	     -9.44810126	     10.34572039	      0.72698582	     -2.25354396	     -3.91633356	    -12.80419438	    -16.22530426	     21.34072635	     -6.67790034	    -11.86605960	      3.41792949	     -8.46685884
      1.43000000	      5.14509896	     -3.00029258	      7.56148527	     -1.34983606	      0.95309256	     -0.56995007	     -5.83442762	      3.32000537	    -13.27171750	     -9.38433497	     10.36879804	      0.71951373	     -2.23807401	     -3.91655281	    -12.77388554	    -16.17906883	     21.31677958	     -6.64517799	    -11.84127292	      3.39776722	     -8.45110299
      1.44000000	      5.12017998	     -2.97865593	      7.64363501	     -1.34997031	      0.95305628	     -0.56971325	     -5.81445711	      3.32230163	    -13.34450365	     -9.36832893	     10.39358054	      0.70007449	     -2.20276943	     -3.91216206	    -12.68658435	    -16.14902829	     21.27503443	     -6.55730610	    -11.82434085	      3.38270666	     -8.50432669
      1.45000000	      5.10170371	     -2.96477857	      7.69206352	     -1.35005661	      0.95302457	     -0.56942623	     -5.80904634	      3.33189738	    -13.38413260	     -9.33668296	     10.40572376	      0.69796800	     -2.17622700	     -3.92243873	    -12.68195764	    -16.13386222	     21.27101968	     -6.54130642	    -11.81404586	      3.36810434	     -8.48257696
      1.46000000	      5.06004737	     -2.95365821	      7.78679172	     -1.35015706	      0.95294791	     -0.56921385	     -5.76928981	      3.34219435	    -13.48764114	     -9.33017971	     10.44040940	      0.69577176	     -2.10296844	     -3.93172285	    -12.59059982	    -16.14337432	     21.24863777	     -6.49231804	    -11.77288502	      3.36323332	     -8.53649014
      1.47000000	      5.03970142	     -2.93844798	      7.84279315	     -1.35022223	      0.95290848	     -0.56896596	     -5.75954352	      3.34737408	    -13.53233023	     -9.31035581	     10.45637555	      0.69784059	     -2.06365381	     -3.93781109	    -12.55749210	    -16.15134753	     21.24133631	     -6.48536979	    -11.76211305	      3.34884953	     -8.50693786
      1.48000000	      4.99113806	     -2.93203250	      7.94884176	     -1.35029367	      0.95281239	     -0.56880028	     -5.70273850	      3.35718560	    -13.65220094	     -9.32883536	     10.50578549	      0.70851136	     -1.97192783	     -3.94732258	    -12.42876664	    -16.18156897	     21.22368810	     -6.48324881	    -11.71274972	      3.34907897	     -8.57179854
